<?xml version="1.0" encoding="UTF-8"?>
<!DOCTYPE svg PUBLIC "-//W3C//DTD SVG 1.1//EN" "http://www.w3.org/Graphics/SVG/1.1/DTD/svg11.dtd">
<!-- Creator: CorelDRAW -->
<svg xmlns="http://www.w3.org/2000/svg" xml:space="preserve" width="2048px" height="2048px" style="shape-rendering:geometricPrecision; text-rendering:geometricPrecision; image-rendering:optimizeQuality; fill-rule:evenodd; clip-rule:evenodd"
viewBox="0 0 2048 2048"
 xmlns:xlink="http://www.w3.org/1999/xlink">
 <defs>
  <style type="text/css">
   <![CDATA[
    .fil0 {fill:none}
    .fil1 {fill:#212121;fill-rule:nonzero}
   ]]>
  </style>
 </defs>
 <g id="Layer_x0020_1">
  <metadata id="CorelCorpID_0Corel-Layer"/>
  <rect class="fil0" width="2048" height="2048"/>
  <rect class="fil0" x="255.996" y="255.996" width="1536" height="1536"/>
  <path class="fil1" d="M288 479.998l1120 0 32.0008 0 0 32.0008 0 544.001 0 32.0008 -32.0008 0 -1120 0 -32.0008 0 0 -32.0008 0 -544.001 0 -32.0008 32.0008 0zm1088 64.0016l-1056 0 0 479.999 1056 0 0 -479.999z"/>
  <polygon class="fil1" points="1472,639.997 1568,639.997 1600,639.997 1600,671.998 1600,1216 1600,1248 1568,1248 448,1248 415.999,1248 415.999,1216 415.999,1120 480,1120 480,1184 1536,1184 1536,703.999 1472,703.999 "/>
  <polygon class="fil1" points="1632,799.999 1728,799.999 1760,799.999 1760,832 1760,1376 1760,1408 1728,1408 607.999,1408 575.998,1408 575.998,1376 575.998,1280 640,1280 640,1344 1696,1344 1696,864.001 1632,864.001 "/>
  <path class="fil1" d="M835.332 876.775l0 -76.0134c-23.7272,-6.81378 -41.1355,-17.0362 -52.2248,-30.789 -11.0268,-13.7528 -16.6028,-30.4181 -16.6028,-49.9937 0,-19.8248 6.25749,-36.489 18.7713,-49.9949 12.5764,-13.5047 29.2406,-21.248 50.0563,-23.3551l0 -32.0386 26.2666 0 0 32.0386c19.2662,2.35394 34.5685,8.85946 45.9674,19.7008 11.3374,10.8413 18.5847,25.337 21.7441,43.4894l-45.9048 6.00827c-2.7874,-14.3102 -10.0358,-23.974 -21.8067,-29.054l0 70.9323c29.0551,7.86851 48.8788,18.0898 59.3493,30.6036 10.5307,12.515 15.7973,28.5603 15.7973,48.1985 0,21.8681 -6.62953,40.3288 -19.8248,55.3217 -13.2567,15.0532 -31.7185,24.2221 -55.3217,27.6295l0 33.9485 -26.2666 0 0 -33.0815c-20.9398,-2.53937 -37.976,-10.3453 -51.0473,-23.4166 -13.0713,-13.0099 -21.3732,-31.4717 -25.0276,-55.3217l47.3918 -5.07993c1.92047,9.66379 5.57481,18.0272 10.9028,25.0276 5.26654,7.0004 11.2134,12.0803 17.7803,15.2398zm0 -190.559c-7.18701,2.41536 -12.8244,6.56575 -17.0988,12.3272 -4.21181,5.82402 -6.3189,12.2669 -6.3189,19.2673 0,6.38032 1.92047,12.3898 5.76142,17.8417 3.90355,5.51339 9.7878,9.97324 17.6563,13.3807l0 -62.817zm26.2666 193.099c9.10631,-1.67244 16.4788,-5.88426 22.1788,-12.5752 5.69882,-6.75237 8.54883,-14.6209 8.54883,-23.7272 0,-8.11536 -2.41654,-15.0543 -7.18583,-20.9398 -4.77048,-5.88426 -12.6378,-10.4067 -23.5418,-13.5047l0 70.7469z"/>
 </g>
</svg>
