<?xml version="1.0" encoding="UTF-8"?>
<!DOCTYPE svg PUBLIC "-//W3C//DTD SVG 1.1//EN" "http://www.w3.org/Graphics/SVG/1.1/DTD/svg11.dtd">
<!-- Creator: CorelDRAW -->
<svg xmlns="http://www.w3.org/2000/svg" xml:space="preserve" width="2048px" height="2048px" style="shape-rendering:geometricPrecision; text-rendering:geometricPrecision; image-rendering:optimizeQuality; fill-rule:evenodd; clip-rule:evenodd"
viewBox="0 0 2048 2048"
 xmlns:xlink="http://www.w3.org/1999/xlink">
 <defs>
  <style type="text/css">
   <![CDATA[
    .fil3 {fill:none}
    .fil1 {fill:#3A3A3A}
    .fil2 {fill:#545454}
    .fil0 {fill:#ACADAD;fill-rule:nonzero}
   ]]>
  </style>
 </defs>
 <g id="Layer_x0020_1">
  <metadata id="CorelCorpID_0Corel-Layer"/>
  <g id="_416220240">
   <path id="_416220360" class="fil0" d="M976.125 664.503c1.7374,-168.346 63.789,-259.276 132.803,-297.518 55.4729,-30.737 116.01,-27.8551 157.253,-3.86811 46.1504,26.8406 69.9343,77.4733 44.0563,137.894 -26.1744,61.1138 -110.574,133.547 -292.237,193.993l-42.3355 14.087 0.459449 -44.5878zm163.802 -241.767c-45.8847,25.4244 -87.7052,85.4953 -97.7812,196.153 130.491,-49.1044 191.216,-100.557 209.341,-142.877 10.9665,-25.6051 1.48819,-46.7138 -17.3067,-57.6449 -23.7036,-13.7858 -59.8111,-14.7154 -94.2532,4.3689z"/>
   <path id="_416220096" class="fil0" d="M973.855 618.889c-10.076,-110.658 -51.8965,-170.728 -97.7812,-196.153 -34.4422,-19.0843 -70.5497,-18.1547 -94.2532,-4.3689 -18.7949,10.9311 -28.2733,32.0398 -17.3067,57.6449 18.1252,42.3201 78.8505,93.7725 209.341,142.877zm-66.7819 -251.903c69.0142,38.2418 131.066,129.171 132.803,297.518l0.459449 44.5878 -42.3355 -14.087c-181.663,-60.4453 -266.062,-132.879 -292.237,-193.993 -25.878,-60.4205 -2.0941,-111.053 44.0563,-137.894 41.2429,-23.987 101.78,-26.8689 157.253,3.86811z"/>
  </g>
  <rect class="fil1" x="384" y="895.999" width="1248" height="864.001"/>
  <polygon class="fil2" points="272.001,696.968 1744,696.968 1744,933.535 272.001,933.535 "/>
  <polygon class="fil0" points="1032,703.999 1032,1760 984.001,1760 984.001,703.999 "/>
  <polygon class="fil0" points="384,1304 1632,1304 1632,1352 384,1352 "/>
 </g>
 <rect class="fil3" width="2048" height="2048"/>
</svg>
